<svg width="100" height="113" viewBox="0 0 100 113" fill="none" xmlns="http://www.w3.org/2000/svg">
<path d="M98.4427 5.2462C98.138 7.15184 97.5013 8.97789 97.1465 10.8767C96.8805 12.3025 96.5962 16.9984 95.8776 17.9035C95.3432 18.5766 90.4154 20.8984 89.2829 21.4146C85.8264 22.9928 81.2146 24.9303 77.4261 25.2327C69.6648 25.8535 61.7875 21.1031 54.9791 17.9262C52.771 16.8961 50.0649 16.1002 48.0069 14.904C44.5049 12.8665 44.987 9.45089 49.2735 9.32809C51.8614 9.25305 64.4959 13.7079 65.2759 12.9688C65.3078 12.5504 65.3578 12.2752 64.8893 12.1092C63.6568 11.6703 61.6147 11.518 60.1844 11.1337C56.2139 10.0672 51.5976 7.62029 47.4679 8.67772C44.8028 9.35993 44.4935 11.186 45.0575 13.651C40.5276 13.4373 36.4093 15.111 33.2347 18.2992C30.8402 20.7028 28.5934 25.1145 24.5525 24.5005C20.9004 23.9456 25.2574 19.3384 26.4354 17.8603C31.3246 11.7249 34.1557 9.62826 41.0506 6.1217C44.3684 4.43437 48.2115 2.08983 51.5658 0.734509C54.5652 -0.477553 56.1707 -0.00227897 59.1428 0.816374C71.218 4.13874 81.367 12.132 94.4154 7.00857C94.9885 6.78345 98.2176 5.01652 98.4427 5.2462Z" fill="black"/>
<path d="M82.0312 52.0982C83.0158 53.0601 80.5508 56.1005 79.9027 57.017C73.4035 66.2314 67.5592 69.2104 57.7831 74.1996C51.5341 77.3878 50.9042 77.7585 43.9684 75.5094C35.0155 72.6055 24.8846 66.3405 15.2928 68.5122C12.5434 69.1353 10.3672 70.4406 7.7998 71.3525C8.05904 69.2013 8.93228 67.1614 9.32114 65.0398C9.72137 62.859 9.71227 60.6418 10.1375 58.4724C17.6305 54.1108 26.2695 50.1175 35.1087 52.5621C39.3657 53.7401 43.3862 56.3893 47.3999 58.2177C50.2788 59.5298 53.4443 60.5213 56.2686 61.8447C58.0196 62.6657 61.1646 64.6782 58.6768 66.6884C57.3147 67.7891 55.2476 67.4775 53.6808 67.1592C49.5329 66.3178 45.4033 64.2029 41.1008 64.0824L40.9643 64.6532C41.0371 64.8806 44.9189 65.5673 45.5602 65.7402C48.9553 66.6498 53.0759 68.6896 56.5369 68.4099C59.4841 68.1711 61.1146 66.3792 60.2777 63.4047C64.4551 63.4025 68.6871 61.9675 71.7503 59.0863C72.9532 57.9539 74.0311 56.1869 75.1568 54.9954C77.0237 53.0192 79.0931 50.7315 82.0334 52.0982H82.0312Z" fill="black"/>
<path d="M52.478 27.8227C67.232 27.7045 68.5259 49.9355 54.0267 51.3613C37.3011 53.0077 36.3892 27.9524 52.478 27.8227Z" fill="black"/>
<path d="M77.542 51.1386C77.6421 51.5297 77.3783 51.5934 77.2032 51.8185C76.5551 52.6576 75.0997 53.6218 74.2446 54.5405C71.916 57.0443 70.8677 59.3888 67.3998 60.8715C67.0564 61.017 65.8648 61.6696 65.7306 61.0147C65.6511 60.6327 69.7057 55.3274 70.281 54.6633C72.173 52.4803 74.3629 49.9311 77.542 51.1386Z" fill="black"/>
<path d="M39.6023 15.4703L34.9269 22.4925C33.1941 24.0821 32.0616 26.3766 29.3669 25.8172C26.4106 25.2032 29.4283 23.8751 30.4084 22.9723C33.2896 20.3208 35.55 16.2798 39.6023 15.4703Z" fill="black"/>
<path d="M67.0339 54.3586C67.359 54.3017 67.6547 54.2335 67.9025 54.5337C68.1504 54.8839 67.9162 55.4388 67.7843 55.8072C67.2749 57.2057 63.9821 61.7424 62.5586 62.1676C61.9559 62.3473 60.0844 62.5792 60.3709 61.5764C60.4619 61.258 61.3692 60.0278 61.6444 59.6639C62.4653 58.5769 65.9059 54.5564 67.0339 54.3609V54.3586Z" fill="black"/>
<path d="M37.3604 22.2582C36.7168 21.858 38.1995 19.3474 38.5133 18.8085C39.2251 17.5805 40.7191 15.3383 42.0381 14.8357C42.9591 14.4855 45.0762 14.0694 44.4258 15.6317C43.9392 16.7982 39.3865 21.9558 38.3041 22.2377C38.0653 22.2991 37.5446 22.3742 37.3626 22.2605L37.3604 22.2582Z" fill="black"/>
<path d="M42.9342 21.651C43.2253 21.6238 43.4686 21.7784 43.6778 21.9558C44.0485 22.2696 46.7705 25.5556 46.8342 25.8557C47.1503 27.3521 44.2714 29.3214 42.9069 27.7273C42.5022 27.2543 41.5926 23.725 41.6517 23.0973C41.7085 22.5152 42.3453 21.7056 42.9342 21.6488V21.651Z" fill="black"/>
<path d="M70.4546 29.1463C70.6138 29.5124 70.9868 29.7967 70.8731 30.2401C70.6843 30.9655 66.9253 34.4584 65.8588 34.3311C64.4876 33.8513 63.6348 31.1452 64.9196 30.2196C65.1971 30.0195 70.2113 29.003 70.4546 29.1463Z" fill="black"/>
<path d="M67.2545 37.7671C67.5479 37.683 71.8617 38.5699 72.3211 38.7518C72.8805 38.9724 73.4331 39.4226 73.2102 40.0889C73.0374 40.5983 68.3211 41.7853 67.482 42.015C66.0743 41.5329 66.0016 38.1332 67.2568 37.7671H67.2545Z" fill="black"/>
<path d="M52.2507 19.5886C52.8579 19.3862 53.3491 19.6227 53.6606 20.1548C53.9039 20.5687 54.759 23.9934 54.7863 24.5073C54.8886 26.4607 50.6521 26.2925 50.3337 24.6438C50.2382 24.1435 51.8323 19.7296 52.2507 19.5909V19.5886Z" fill="black"/>
<path d="M63.4298 22.9951C63.6981 23.4067 62.361 27.8183 62.0426 28.1389C61.0693 29.1122 57.7219 27.7251 58.6338 25.5238C58.8112 25.0963 61.3831 22.5493 61.7402 22.5289C61.9221 22.5175 63.382 22.9223 63.4298 22.9951Z" fill="black"/>
<path d="M35.2245 29.1418C35.7862 28.9735 39.8248 29.7512 40.2797 30.1287C41.8169 31.4135 40.0864 34.7313 38.4718 33.9809C38.0534 33.1145 32.9595 29.8194 35.2245 29.1395V29.1418Z" fill="black"/>
<path d="M60.8854 51.1931C62.3067 51.1545 63.0639 54.702 63.1822 55.8572C63.2754 56.7736 63.1026 57.374 62.1679 57.69C61.7427 57.7242 58.5386 54.2062 58.459 53.7378C58.2566 52.5689 59.8462 51.2204 60.8854 51.1931Z" fill="black"/>
<path d="M37.7517 42.0265C37.5038 42.1675 32.5169 40.6508 32.2622 40.4779C30.2633 39.1203 37.0422 37.7696 37.8017 37.6217C39.2435 38.993 38.8683 40.5985 37.754 42.0265H37.7517Z" fill="black"/>
<path d="M38.4064 45.499C39.7549 45.0942 41.2831 47.3796 40.6304 48.6417C40.4599 48.9851 36.8032 50.2517 36.2052 50.3609C35.2091 50.5405 35.125 50.2131 34.4814 49.5445V49.0942C34.6838 48.7008 38.0062 45.6195 38.4064 45.499Z" fill="black"/>
<path d="M65.6606 45.4989C66.0495 45.3761 66.4907 45.4057 66.8636 45.5762C67.0524 45.6626 69.7175 48.3142 69.8312 48.512C71.3389 51.0839 66.5202 49.9674 65.3946 49.5421C63.5799 48.8599 64.5145 45.8582 65.6606 45.4989Z" fill="black"/>
<path d="M53.2152 59.5253C51.3619 59.9733 50.3227 54.9567 50.848 54.088C51.4551 53.0829 54.4955 53.0465 54.7889 54.7134C54.9822 55.8118 53.4586 58.32 53.2152 59.5253Z" fill="black"/>
<path d="M43.2773 51.4023C46.9476 50.9771 48.1437 53.806 44.9123 55.8708L42.1221 54.4086L43.2773 51.4023Z" fill="black"/>
<path d="M60.5513 109.515C60.3694 110.109 59.1459 109.995 58.9685 109.054C58.8253 108.292 58.9072 102.359 59.221 102.163C59.4484 102.022 60.2761 102.097 60.5513 102.247C61.2426 102.625 63.221 106.266 64.1875 106.902V102.7C64.1875 102.641 64.4217 102.17 64.5672 102.12L65.777 102.473V109.515C65.777 109.927 64.7196 109.963 64.283 109.643C63.2392 108.879 61.9134 105.85 60.5513 105.083V109.513V109.515Z" fill="black"/>
<path d="M35.4663 101.809C36.7921 101.62 40.003 102.445 38.1042 103.996C37.7108 104.067 37.2582 103.448 36.7625 103.355C32.9535 102.643 32.9057 108.854 36.5283 108.333C37.2241 108.233 38.3088 107.082 38.8205 108.117C39.5755 109.64 36.3987 110.063 35.2821 109.831C30.991 108.947 31.2229 102.411 35.4663 101.809Z" fill="black"/>
<path d="M24.1865 102.125L24.0819 104.406C23.0063 103.889 21.8011 103.607 20.7846 104.403C18.0262 106.568 21.1325 111.81 23.9705 108.951L24.4435 109.615L25.4464 109.292V102.25C25.4464 101.954 24.4913 101.681 24.1865 102.125ZM22.8039 108.437C20.9347 108.638 20.7732 105.188 22.6084 105.192C24.4617 105.197 24.4822 108.258 22.8039 108.437Z" fill="black"/>
<path d="M6.33566 103.678L5.64208 103.91C1.39646 100.879 -0.120327 108.608 4.23445 108.294C5.03491 108.237 6.21741 106.903 6.59035 108.215C6.9633 109.527 4.4846 109.941 3.56134 109.875C-1.39379 109.522 -1.17775 101.277 4.20716 101.711C5.08494 101.781 7.36353 102.646 6.33566 103.676V103.678Z" fill="black"/>
<path d="M7.54346 102.468C7.689 101.986 8.58951 102.016 8.92835 102.448C9.33767 102.973 9.06251 103.973 9.13756 104.626C9.93802 103.667 12.7692 104.158 12.7692 105.422V109.511C12.7692 110.111 11.1796 109.8 11.1796 109.283V105.875C8.06649 104.319 9.61283 108.176 9.02158 109.395C8.69639 110.063 7.54573 109.904 7.54573 109.509V102.466L7.54346 102.468Z" fill="black"/>
<path d="M51.8801 107.435C52.3008 109.036 53.7517 108.54 54.9251 108.126L55.2616 109.106C55.0706 109.693 53.2991 109.966 52.7374 109.891C48.9375 109.377 49.6061 102.73 54.1655 104.13C55.5936 104.569 56.219 107.437 55.1752 107.437H51.8801V107.435ZM54.3793 106.298C53.8813 104.972 52.6988 104.754 51.8824 105.963C51.7869 106.477 52.1075 106.277 52.4441 106.3C53.0831 106.345 53.7403 106.27 54.3793 106.298Z" fill="black"/>
<path d="M88.731 108.371C88.0784 107.919 85.8794 109.763 85.3154 107.585H88.8379C90.532 104.747 85.7156 102.73 84.2762 105.297C83.121 107.362 84.2307 110.104 86.7958 110.084C87.5667 110.077 89.7771 109.095 88.731 108.371ZM87.8146 106.448L85.3177 106.336C85.9271 105.001 87.4621 104.917 87.8146 106.448Z" fill="black"/>
<path d="M40.2851 105.518C40.8263 105.911 42.8456 104.142 43.2481 106.07C42.1998 105.995 40.4443 106.111 39.8667 107.121C38.6978 109.165 41.7746 110.93 43.1344 109.026L43.6074 109.69L44.6103 109.368V105.279C44.6103 103.671 39.0821 103.273 40.2851 105.518ZM41.2993 108.36C40.4647 107.184 42.4863 107.037 43.2481 107.212C43.2368 108.112 41.8974 109.199 41.2993 108.36Z" fill="black"/>
<path d="M71.2505 104.196C71.7031 103.892 72.474 104.381 72.5877 104.976C72.7036 105.586 72.6582 109.356 72.3921 109.722C71.8031 110.527 71.1869 109.39 71.1095 109.388C70.3591 109.365 68.6331 110.982 67.628 109.029C67.2937 108.381 66.9981 104.981 67.4847 104.401C67.7462 104.087 68.383 104.028 68.6331 104.39C69.1061 105.079 68.0123 108.844 69.9498 108.667C71.7531 108.501 70.5842 104.647 71.2551 104.194L71.2505 104.196Z" fill="black"/>
<path d="M97.3585 107.582C98.1544 106.993 98.2045 104.965 98.8298 104.401C99.7508 103.573 100.185 104.433 99.9259 105.497C99.7213 106.336 97.9316 110.564 97.4518 111.203C96.7582 112.126 95.3051 112.849 95.0686 111.332L95.1777 110.973C96.2056 110.809 96.5854 110.345 96.856 109.329C96.4285 108.349 94.5888 105.447 94.8821 104.553C96.2852 103.089 97.0083 106.573 97.3563 107.585L97.3585 107.582Z" fill="black"/>
<path d="M82.3384 105.747C81.9109 106.061 79.8347 104.726 79.6368 105.656C79.4185 106.675 82.9933 105.95 82.5772 108.592C82.327 110.184 80.1849 110.27 78.9546 109.74C78.1678 109.402 77.8813 109.111 78.2929 108.283C78.7318 107.958 81.4333 109.743 80.8512 107.81C75.8642 106.998 78.9887 102.248 82.4885 104.863L82.3384 105.75V105.747Z" fill="black"/>
<path d="M18.5721 109.536C18.3993 110.1 17.2395 109.986 17.028 109.263C16.8165 108.54 16.8916 103.63 17.0439 102.771C17.21 101.831 17.9672 101.954 18.5721 102.493V109.536Z" fill="black"/>
<path d="M47.5683 104.708C47.9526 104.679 47.6774 104.274 48.2232 104.126C48.678 104.001 49.1465 104.01 49.6104 104.028C49.5899 104.283 49.6649 104.588 49.6104 104.822C49.4148 105.663 48.8349 105.231 48.2482 105.506C47.0748 106.061 47.8321 108.41 47.5296 109.331C47.3386 109.916 46.4949 109.793 46.1788 109.386C45.9082 109.036 45.4853 103.999 46.7769 104.017C47.2977 103.93 47.5342 104.233 47.566 104.708H47.5683Z" fill="black"/>
<path d="M90.3135 104.517C90.5773 103.646 91.6233 104.556 91.8348 104.59C92.0236 104.622 94.1179 103.344 93.961 104.97C93.8814 105.806 93.0173 105.411 92.5102 105.579C91.3527 105.963 92.2669 108.979 91.803 109.643C91.4983 110.079 90.3135 109.847 90.3135 109.515V104.517Z" fill="black"/>
<path d="M73.7293 104.517C73.9931 103.646 75.0392 104.556 75.2507 104.59C75.4394 104.622 77.5338 103.344 77.3769 104.97C77.2973 105.806 76.4332 105.411 75.926 105.579C74.7777 105.961 75.7259 108.749 75.1119 109.536C74.7231 110.034 73.7271 109.891 73.7271 109.515V104.517H73.7293Z" fill="black"/>
<path d="M31.2067 106.072L31.1067 106.996C30.8747 107.332 27.0589 107.705 27.798 106.072H31.2067Z" fill="black"/>
<path d="M15.6751 109.479C15.5023 110.043 14.3425 109.929 14.131 109.206C14.247 109.597 13.5034 105.367 14.2879 104.274C14.6654 103.953 15.3999 104.089 15.6751 104.481V109.479Z" fill="black"/>
<path d="M15.6454 103.198C15.1178 104.021 13.2509 102.8 14.4106 101.847C15.2998 101.117 16.0206 102.614 15.6454 103.198Z" fill="black"/>
<path d="M13.5583 90.7362C12.9193 89.9608 9.56505 89.5037 8.40075 88.967C4.0346 86.9523 5.38538 80.7305 10.3905 80.0528C12.3303 79.789 16.8511 80.328 16.3508 83.0523C15.9551 85.2058 13.7197 83.332 12.8169 83.1887C11.4366 82.9681 8.97608 83.1478 9.30809 85.0944C9.54686 86.4952 12.9011 86.8204 14.1404 87.3184C16.9034 88.4281 18.3064 90.7362 16.8988 93.6038C15.4457 96.5669 11.2478 96.8102 8.44623 95.9665C7.30239 95.6209 5.01016 94.4611 5.61505 93.0103C6.58152 90.6908 8.73276 93.1012 10.1586 93.3446C10.8135 93.456 11.8755 93.4924 12.5031 93.2968C13.4809 92.9944 14.3383 91.6777 13.5583 90.7362Z" fill="black"/>
<path d="M59.742 85.6742C62.0524 83.2046 66.7187 83.9936 67.219 87.6253C67.3555 88.6236 67.3646 94.7476 67.0712 95.3888C66.6573 96.2962 65.0359 96.3917 64.406 95.6617C63.0052 94.0381 65.8887 86.8089 61.6681 87.2501C58.3184 87.598 60.5515 93.8561 59.4918 95.5321C58.9233 96.4326 57.2133 96.3621 56.6948 95.423C56.0694 94.2882 56.5697 93.6151 56.572 92.61C56.5811 88.8237 56.5379 85.0352 56.5674 81.2489C56.8858 79.5365 59.742 80.2028 59.742 81.2421V85.6719V85.6742Z" fill="black"/>
<path d="M98.6368 86.6474C96.0694 82.2722 88.9403 83.9641 88.3673 88.967C87.8511 93.4559 90.3889 96.7396 95.0666 96.3462C96.3673 96.237 99.6306 95.025 98.6004 93.3308C97.709 91.8641 95.9057 93.4923 94.8164 93.6105C93.2883 93.7765 91.7738 92.9374 91.5486 91.3524H98.2502C99.858 91.3524 99.2463 87.6889 98.6368 86.6474ZM91.5486 88.8533C92.4969 86.1176 95.5464 86.1472 96.5447 88.8533H91.5486Z" fill="black"/>
<path d="M82.4027 87.5503C82.0456 87.216 81.0292 87.2023 80.5448 87.2751C77.3179 87.764 79.833 94.5202 78.364 95.7754C77.1815 96.7874 75.5942 95.9505 75.4123 94.4247C75.2008 92.6396 75.2053 87.8004 75.4123 86.0085C75.6647 83.8277 78.505 83.6389 78.6005 85.8993C79.0962 85.5104 79.1235 85.0761 79.8034 84.7214C82.5755 83.2682 85.9638 84.8692 86.3231 88.0596C86.4891 89.5241 86.4982 93.199 86.3277 94.6521C86.2526 95.2797 86.0843 95.8073 85.4294 96.0233C81.0974 97.4537 83.9899 89.042 82.4049 87.5503H82.4027Z" fill="black"/>
<path d="M35.3666 84.8283C35.5554 85.0375 35.6395 85.7334 35.7737 85.672C38.5116 82.8954 42.946 84.2121 43.3871 88.2849C43.4895 89.2286 43.5122 94.6226 43.2666 95.2093C42.7595 96.4305 40.697 96.526 40.1512 95.1547C39.3325 93.1013 41.3246 87.4662 38.2706 87.2479C33.7771 86.9273 37.4337 94.8614 34.9232 95.9484C33.4996 96.5646 32.6037 95.887 32.4718 94.427C32.3035 92.5942 32.2193 87.2661 32.4968 85.5697C32.7219 84.1961 34.4934 83.855 35.3689 84.826L35.3666 84.8283Z" fill="black"/>
<path d="M29.4628 84.6055C29.581 84.701 29.888 85.2331 29.9222 85.3877C30.2132 86.7021 30.1632 93.1422 29.9881 94.6499C29.7448 96.7215 27.1819 96.601 26.6907 94.7613C24.9875 96.9739 21.0057 96.7488 19.714 94.2383C18.9295 92.7124 18.8794 88.0074 19.0795 86.2405C19.2205 85.0011 19.8482 84.0802 21.2262 84.3076C24.2257 84.8033 20.4599 93.4242 24.419 93.4174C28.2121 93.4105 25.5969 86.9932 27.0591 84.9056C27.5526 84.2007 28.8192 84.087 29.4651 84.6055H29.4628Z" fill="black"/>
<path d="M49.7086 84.1391C51.2117 84.0641 54.8979 84.9146 53.9428 87.0317C53.1356 88.8214 50.8797 86.2517 49.347 86.9771C47.1139 88.0323 51.1844 88.9373 51.7871 89.1989C53.7677 90.0607 54.8957 91.1022 54.4636 93.4581C53.8382 96.8715 48.5033 97.0534 46.227 95.2114C45.1469 94.3382 45.1423 92.7373 46.5022 92.5281C47.3618 92.3962 50.7797 94.8817 51.305 93.0101C51.6847 91.6525 48.8899 91.4524 47.9326 91.0113C43.928 89.1693 45.5221 84.3506 49.7109 84.1391H49.7086Z" fill="black"/>
<path d="M72.8514 84.8305C73.1334 85.1807 73.1198 85.5855 73.1561 86.0039C73.3199 87.93 73.4154 93.0648 73.1334 94.859C72.8514 96.6532 70.0316 96.6191 69.7542 94.859C69.5541 93.5787 69.5177 86.7634 69.7451 85.5627C69.9952 84.2415 72.0555 83.8413 72.8514 84.8282V84.8305Z" fill="black"/>
<path d="M70.8093 79.5843C73.3403 78.8271 74.0521 82.6838 71.8417 83.1364C69.4699 83.6207 68.8559 80.1687 70.8093 79.5843Z" fill="black"/>
</svg>
